<?xml version="1.0" encoding="utf-8"?>
<!-- Generator: Adobe Illustrator 16.0.4, SVG Export Plug-In . SVG Version: 6.00 Build 0)  -->
<!DOCTYPE svg PUBLIC "-//W3C//DTD SVG 1.1//EN" "http://www.w3.org/Graphics/SVG/1.1/DTD/svg11.dtd">
<svg version="1.1" id="Layer_2" xmlns="http://www.w3.org/2000/svg" xmlns:xlink="http://www.w3.org/1999/xlink" x="0px" y="0px"
	 width="211.766px" height="62.261px" viewBox="0 0 211.766 62.261" enable-background="new 0 0 211.766 62.261"
	 xml:space="preserve">
<g>
	<path fill="#FFFFFF" d="M109.818,12.636h-2.581c0-4.512-3.754-9.961-8.417-9.961H81.266V0.094H98.82
		C105.014,0.094,109.818,6.836,109.818,12.636z"/>
</g>
<g>
	<path fill="#FFFFFF" d="M152.727,2.581c8.539,0,15.485,6.947,15.485,15.485v7.743c0,8.539-6.946,15.485-15.485,15.485h-4.355
		c-8.54,0-15.486-6.946-15.486-15.485v-7.743c0-8.538,6.946-15.485,15.486-15.485H152.727 M152.727,0h-4.355
		c-9.938,0-18.067,8.13-18.067,18.066v7.743c0,9.937,8.13,18.066,18.067,18.066h4.355c9.937,0,18.066-8.13,18.066-18.066v-7.743
		C170.793,8.13,162.664,0,152.727,0L152.727,0z"/>
</g>
<g>
	<path fill="#FFFFFF" d="M199.83,43.607h-8.872v-2.581h8.872c5.684,0,9.355-3.289,9.355-8.379c0-4.424-2.821-6.202-7.497-9.149
		l-1.263-0.798c-0.62-0.396-1.231-0.773-1.826-1.141c-4.793-2.958-8.933-5.514-8.933-12.185c0-5.837,3.739-9.321,10.001-9.321h9.356
		v2.581h-9.356c-3.385,0-7.42,1.17-7.42,6.74c0,5.232,3.066,7.125,7.708,9.988c0.604,0.373,1.226,0.757,1.857,1.159l1.251,0.793
		c4.862,3.063,8.702,5.484,8.702,11.332C211.766,39.203,206.968,43.607,199.83,43.607z"/>
</g>
<polygon fill="#FFFFFF" points="109.646,43.449 100.834,24.865 103.043,24.865 105.043,22.284 89.816,22.284 89.816,24.865 
	97.976,24.865 106.789,43.449 "/>
<path fill="#FFFFFF" d="M35.372,43.876h2.746L22.215,0.094h-6.106L0,43.876h2.75l4.432-12.044h23.815L35.372,43.876z M8.132,29.251
	L17.91,2.675h2.497l9.653,26.576H8.132z"/>
<polygon fill="#FFFFFF" points="67.288,40.861 52.532,0 49.788,0 65.474,43.442 78.956,43.449 78.957,40.868 "/>
<g>
	<path fill="#FFFFFF" d="M50.825,59.001c0-1.782,1.332-3.259,3.187-3.259c1.144,0,1.81,0.424,2.44,1.018l-0.469,0.504
		c-0.531-0.504-1.125-0.864-1.98-0.864c-1.396,0-2.439,1.135-2.439,2.602c0,1.459,1.053,2.603,2.439,2.603
		c0.864,0,1.432-0.333,2.035-0.909l0.468,0.495c-0.657,0.666-1.378,1.071-2.521,1.071C52.166,62.261,50.825,60.829,50.825,59.001z"
		/>
	<path fill="#FFFFFF" d="M58.331,59.001c0-1.737,1.306-3.259,3.223-3.259c1.918,0,3.205,1.504,3.205,3.259
		c0,1.738-1.306,3.26-3.223,3.26C59.618,62.261,58.331,60.757,58.331,59.001z M64.02,59.001c0-1.431-1.044-2.602-2.484-2.602
		s-2.467,1.152-2.467,2.602c0,1.432,1.044,2.603,2.484,2.603S64.02,60.451,64.02,59.001z"/>
	<path fill="#FFFFFF" d="M67.304,55.851h0.666l3.97,5.051v-5.051h0.693v6.302h-0.567l-4.069-5.168v5.168h-0.692V55.851z"/>
	<path fill="#FFFFFF" d="M75.043,61.234l0.44-0.522c0.657,0.594,1.288,0.892,2.161,0.892c0.846,0,1.404-0.45,1.404-1.09
		c0-0.585-0.315-0.918-1.639-1.197c-1.449-0.315-2.115-0.783-2.115-1.837c0-0.99,0.873-1.719,2.07-1.719
		c0.918,0,1.575,0.261,2.215,0.774l-0.414,0.549c-0.585-0.478-1.171-0.685-1.818-0.685c-0.819,0-1.342,0.45-1.342,1.035
		c0,0.595,0.324,0.928,1.711,1.225c1.404,0.307,2.052,0.819,2.052,1.801c0,1.08-0.899,1.782-2.151,1.782
		C76.619,62.242,75.799,61.909,75.043,61.234z"/>
	<path fill="#FFFFFF" d="M83.792,56.508h-2.115v-0.657h4.951v0.657h-2.115v5.645h-0.721V56.508z"/>
	<path fill="#FFFFFF" d="M89.002,55.851h2.709c0.774,0,1.396,0.234,1.792,0.63c0.306,0.307,0.486,0.747,0.486,1.261
		c0,1.044-0.721,1.656-1.711,1.836l1.936,2.575h-0.873l-1.827-2.449h-1.801v2.449h-0.711V55.851z M91.649,59.064
		c0.945,0,1.62-0.486,1.62-1.314c0-0.774-0.594-1.242-1.611-1.242h-1.944v2.557H91.649z"/>
	<path fill="#FFFFFF" d="M96.455,59.515v-3.664h0.712v3.619c0,1.359,0.72,2.124,1.926,2.124c1.162,0,1.9-0.702,1.9-2.079v-3.664
		h0.711v3.61c0,1.836-1.054,2.79-2.629,2.79C97.517,62.251,96.455,61.297,96.455,59.515z"/>
	<path fill="#FFFFFF" d="M104.149,59.001c0-1.782,1.332-3.259,3.187-3.259c1.144,0,1.81,0.424,2.44,1.018l-0.469,0.504
		c-0.531-0.504-1.125-0.864-1.98-0.864c-1.396,0-2.439,1.135-2.439,2.602c0,1.459,1.053,2.603,2.439,2.603
		c0.864,0,1.432-0.333,2.035-0.909l0.468,0.495c-0.657,0.666-1.378,1.071-2.521,1.071C105.49,62.261,104.149,60.829,104.149,59.001z
		"/>
	<path fill="#FFFFFF" d="M113.78,56.508h-2.115v-0.657h4.951v0.657H114.5v5.645h-0.721V56.508z"/>
	<path fill="#FFFFFF" d="M119.053,55.851h0.711v6.302h-0.711V55.851z"/>
	<path fill="#FFFFFF" d="M122.375,59.001c0-1.737,1.306-3.259,3.223-3.259c1.918,0,3.205,1.504,3.205,3.259
		c0,1.738-1.306,3.26-3.223,3.26C123.662,62.261,122.375,60.757,122.375,59.001z M128.064,59.001c0-1.431-1.044-2.602-2.484-2.602
		s-2.467,1.152-2.467,2.602c0,1.432,1.044,2.603,2.484,2.603S128.064,60.451,128.064,59.001z"/>
	<path fill="#FFFFFF" d="M131.347,55.851h0.666l3.97,5.051v-5.051h0.693v6.302h-0.567l-4.069-5.168v5.168h-0.692V55.851z"/>
	<path fill="#FFFFFF" d="M142.966,59.001c0-1.782,1.332-3.259,3.187-3.259c1.144,0,1.81,0.424,2.44,1.018l-0.469,0.504
		c-0.531-0.504-1.125-0.864-1.98-0.864c-1.396,0-2.439,1.135-2.439,2.602c0,1.459,1.053,2.603,2.439,2.603
		c0.864,0,1.432-0.333,2.035-0.909l0.468,0.495c-0.657,0.666-1.378,1.071-2.521,1.071C144.307,62.261,142.966,60.829,142.966,59.001
		z"/>
	<path fill="#FFFFFF" d="M150.472,59.001c0-1.737,1.306-3.259,3.223-3.259c1.918,0,3.205,1.504,3.205,3.259
		c0,1.738-1.306,3.26-3.223,3.26C151.759,62.261,150.472,60.757,150.472,59.001z M156.162,59.001c0-1.431-1.044-2.602-2.484-2.602
		s-2.467,1.152-2.467,2.602c0,1.432,1.044,2.603,2.484,2.603S156.162,60.451,156.162,59.001z"/>
	<path fill="#FFFFFF" d="M158.887,61.207h0.828v0.945h-0.828V61.207z"/>
</g>
</svg>
