<svg xmlns="http://www.w3.org/2000/svg" width="119" height="118" viewBox="0 0 119 118"><g><g><path fill="#323232" d="M36.037 111.794a5.872 5.872 0 0 1-5.868 5.865H8.664c-4.314 0-7.822-3.507-7.822-7.822 0-4.311 3.508-7.82 7.822-7.82V70.735a1.954 1.954 0 1 1 3.911 0v32.248c.343.176.68.377.996.602 1.592-3.243 4.93-5.478 8.779-5.478 4.82 0 8.84 3.51 9.633 8.108a5.877 5.877 0 0 1 4.054 5.579zm-3.912-.003a1.957 1.957 0 0 0-1.956-1.954 1.953 1.953 0 0 1-1.953-1.955 5.87 5.87 0 0 0-5.866-5.865 5.873 5.873 0 0 0-5.868 5.865 1.955 1.955 0 0 1-3.786.684c-.589-1.578-2.209-2.637-4.032-2.637a3.915 3.915 0 0 0-3.913 3.908 3.918 3.918 0 0 0 3.913 3.914h21.505a1.96 1.96 0 0 0 1.956-1.96zm86.033-93.851v48.881a1.96 1.96 0 0 1-1.207 1.809 1.963 1.963 0 0 1-2.132-.425L59.494 12.88 4.189 68.205a1.953 1.953 0 0 1-2.132.425 1.958 1.958 0 0 1-1.205-1.807L.842 17.94c0-.518.206-1.017.573-1.38a1.949 1.949 0 0 1 1.38-.576h21.509v-3.909H22.35a1.958 1.958 0 0 1-1.956-1.955V2.298A1.96 1.96 0 0 1 22.35.341h15.644c1.078 0 1.953.878 1.953 1.957v7.822a1.955 1.955 0 0 1-1.953 1.955h-1.957v3.91h3.91a1.957 1.957 0 0 1 0 3.911H34.08a1.957 1.957 0 0 1-1.956-1.956v-7.82c0-1.08.877-1.957 1.956-1.957h1.956v-3.91H24.304v3.91h1.956c1.08 0 1.956.876 1.956 1.957v7.82a1.956 1.956 0 0 1-1.956 1.956H4.75V62.1L58.106 8.74a1.965 1.965 0 0 1 2.779 0l53.364 53.363V19.896H79.053a1.957 1.957 0 0 1 0-3.912h37.152c1.079 0 1.953.877 1.953 1.956zm0 91.897c0 4.315-3.508 7.822-7.821 7.822H49.723a1.954 1.954 0 0 1 0-3.908h33.601a5.794 5.794 0 0 1-.36-1.957 5.875 5.875 0 0 1 4.053-5.579c.793-4.598 4.81-8.108 9.633-8.108 3.85 0 7.187 2.235 8.78 5.478.315-.225.649-.426.996-.602V70.735a1.955 1.955 0 1 1 3.91 0v31.282c4.314 0 7.822 3.509 7.822 7.82zm-3.91 0a3.915 3.915 0 0 0-3.911-3.908c-1.824 0-3.445 1.06-4.035 2.637a1.952 1.952 0 0 1-2.18 1.241 1.952 1.952 0 0 1-1.607-1.925 5.87 5.87 0 0 0-5.865-5.865 5.872 5.872 0 0 0-5.866 5.865 1.953 1.953 0 0 1-1.956 1.955 1.957 1.957 0 0 0 0 3.914h21.509a3.919 3.919 0 0 0 3.911-3.914zM59.498 47.27c-4.313 0-7.818-3.507-7.818-7.821s3.505-7.82 7.818-7.82c4.314 0 7.822 3.506 7.822 7.82s-3.508 7.821-7.822 7.821zm0-3.911a3.913 3.913 0 0 0 3.912-3.91 3.913 3.913 0 0 0-3.912-3.91 3.914 3.914 0 0 0-3.908 3.91 3.913 3.913 0 0 0 3.908 3.91zm39.107 25.42v21.508h1.957c1.078 0 1.953.874 1.953 1.953a1.957 1.957 0 0 1-1.953 1.957H77.098a1.955 1.955 0 0 1 0-3.91h1.955V68.777c0-1.078.875-1.954 1.954-1.954H96.65c1.079 0 1.955.876 1.955 1.954zm-3.911 13.686h-11.73v7.822h11.73zm0-11.73h-11.73v7.818h11.73zm-17.596 39.103h-33.24v5.867a1.955 1.955 0 0 1-3.911 0v-7.822c0-1.078.876-1.953 1.956-1.953h5.866V68.777c0-1.078.875-1.954 1.956-1.954h19.551c1.08 0 1.956.876 1.956 1.954v37.152h5.866a1.954 1.954 0 1 1 0 3.908zM67.32 70.735H51.68v35.194h15.64V90.286h-1.954a1.958 1.958 0 0 1-1.956-1.956c0-1.08.878-1.956 1.956-1.956h1.954zm-27.373-1.958v21.509h1.956a1.954 1.954 0 1 1 0 3.91H18.439a1.96 1.96 0 0 1-1.957-1.957c0-1.079.878-1.953 1.957-1.953h1.955V68.777c0-1.078.878-1.954 1.956-1.954h15.644c1.078 0 1.953.876 1.953 1.954zm-3.91 13.687H24.304v7.822h11.733zm0-11.73H24.304v7.818h11.733z"/></g></g></svg>