<svg xmlns="http://www.w3.org/2000/svg" width="145" height="118" viewBox="0 0 145 118"><g><g><path fill="#ffffff" d="M140.203 115.544c0 1.17-.944 2.115-2.114 2.115H6.91a2.115 2.115 0 1 1 0-4.231h2.41V50.65C3.884 47.153.272 41.053.272 34.123c0-.368.096-.73.277-1.05L17.34 3.688A6.661 6.661 0 0 1 23.106.341h98.788a6.655 6.655 0 0 1 5.765 3.347l16.79 29.385c.182.32.28.682.28 1.05 0 6.93-3.612 13.03-9.048 16.528v62.776h2.408c1.17 0 2.114.949 2.114 2.117zM19.916 49.536c7.779 0 14.225-5.798 15.264-13.295H20.482a2.117 2.117 0 0 1 0-4.233h104.037a2.116 2.116 0 1 1 0 4.233h-14.697c1.034 7.497 7.481 13.295 15.262 13.295 7.78 0 14.232-5.798 15.266-13.295h-6.784a2.118 2.118 0 0 1 0-4.234h5.398L123.983 5.788a2.41 2.41 0 0 0-2.09-1.213H23.107c-.86 0-1.662.465-2.09 1.213L6.034 32.008h5.4a2.116 2.116 0 1 1 0 4.233H4.65c1.035 7.497 7.484 13.295 15.266 13.295zM74.765 36.24c1.036 7.497 7.483 13.295 15.263 13.295s14.227-5.798 15.263-13.295zm-35.056 0c1.035 7.497 7.482 13.295 15.262 13.295s14.23-5.798 15.266-13.295zm80.432 70.111H97.234v7.075h22.907zm0-42.972H97.234v38.74h22.907zm11.308-10.678a19.561 19.561 0 0 1-6.365 1.065c-7.645 0-14.283-4.388-17.528-10.78-3.246 6.392-9.884 10.78-17.528 10.78-7.645 0-14.283-4.388-17.526-10.78-3.247 6.392-9.886 10.78-17.53 10.78-7.645 0-14.285-4.388-17.528-10.78-3.247 6.392-9.884 10.78-17.528 10.78-2.228 0-4.367-.379-6.366-1.065v60.725H93V61.262c0-1.167.95-2.114 2.117-2.114h27.14c1.168 0 2.117.947 2.117 2.114v52.165h7.075zm-45.524 8.56v42.975a2.116 2.116 0 0 1-2.116 2.115H22.742a2.116 2.116 0 0 1-2.116-2.115V61.262c0-1.167.947-2.114 2.116-2.114H83.81c1.17 0 2.116.947 2.116 2.114zm-4.234 2.118H24.86v38.74H81.69z"/></g></g></svg>