<svg xmlns="http://www.w3.org/2000/svg" width="117" height="118" viewBox="0 0 117 118"><g><g><path fill="#323232" d="M116.66 35.707a5.869 5.869 0 0 1-4.255 4.955 5.86 5.86 0 0 1-4.457-.548L58.5 12.371 9.052 40.114a5.677 5.677 0 0 1-2.854.765 6.6 6.6 0 0 1-1.603-.217 5.866 5.866 0 0 1-1.29-10.774l50.404-28.29a9.759 9.759 0 0 1 9.582 0l50.404 28.29a5.867 5.867 0 0 1 2.965 5.82zm-3.95-1.233a1.938 1.938 0 0 0-.93-1.183L61.373 5a5.864 5.864 0 0 0-5.748 0L5.182 33.291a1.968 1.968 0 0 0-.732 2.69 1.97 1.97 0 0 0 2.686.732L56.545 8.947c1.209-.7 2.702-.7 3.909 0l49.41 27.766a1.956 1.956 0 0 0 2.658-.744c.259-.454.327-.992.188-1.495zM13.53 46.233V115.7a1.953 1.953 0 1 1-3.909 0V46.233a1.954 1.954 0 1 1 3.909 0zm93.852 0V115.7a1.956 1.956 0 0 1-3.912 0V46.233a1.956 1.956 0 0 1 3.912 0zM99.56 43.36v72.34a1.956 1.956 0 1 1-3.912 0V53.136H21.352V115.7a1.955 1.955 0 1 1-3.912 0v-72.34c0-1.082.875-1.956 1.953-1.956h78.21c1.08 0 1.957.874 1.957 1.956zm-3.912 5.865v-3.912H21.352v3.912zM44.814 29.674v3.91H74.14a1.955 1.955 0 0 1 0 3.908H42.858a1.955 1.955 0 0 1-1.956-1.953v-7.821c0-1.079.876-1.955 1.956-1.955H74.14a1.956 1.956 0 1 1 0 3.911zm46.925 78.208v7.819a1.957 1.957 0 1 1-3.912 0v-5.863h-5.865v5.863a1.956 1.956 0 1 1-3.91 0v-5.863H74.14v5.863a1.955 1.955 0 1 1-3.908 0v-5.863h-5.867v5.863a1.956 1.956 0 1 1-3.911 0v-5.863h-3.91v5.863a1.955 1.955 0 0 1-3.91 0v-5.863H46.77v5.863a1.955 1.955 0 1 1-3.912 0v-5.863h-3.91v5.863a1.956 1.956 0 0 1-3.911 0v-5.863h-5.864v5.863a1.955 1.955 0 1 1-3.91 0v-7.819c0-1.078.873-1.953 1.952-1.953h1.958V84.418c0-1.076.875-1.954 1.954-1.954h5.865v-9.776c0-1.08.875-1.954 1.956-1.954h9.775v-9.776c0-1.08.877-1.954 1.955-1.954h27.374c1.079 0 1.953.873 1.953 1.954v21.506h5.868c1.079 0 1.954.878 1.954 1.954v21.51h1.956c1.08 0 1.956.876 1.956 1.954zM70.232 90.286h3.908v-3.912h-3.908zm-7.823-27.373v3.91h3.912v-3.91zm-9.774 19.55h23.462v-19.55h-5.865v5.864a1.957 1.957 0 0 1-1.957 1.957h-7.821a1.956 1.956 0 0 1-1.954-1.957v-5.864h-5.865zm-9.777 7.823h3.912v-3.912h-3.912zm-1.956-7.822h7.821v-7.82h-7.821zm15.643 23.465V86.374h-5.867v5.868a1.953 1.953 0 0 1-1.955 1.954h-7.821a1.954 1.954 0 0 1-1.954-1.954v-5.868H33.08v19.555zm27.373 0V86.374h-5.866v5.868a1.955 1.955 0 0 1-1.955 1.954h-7.822a1.954 1.954 0 0 1-1.954-1.954v-5.868h-5.867v19.555z"/></g></g></svg>