<svg xmlns="http://www.w3.org/2000/svg" width="119" height="118" viewBox="0 0 119 118"><g><g><path fill="#fff" d="M118.158 107.296v8.408c0 1.174-.785 1.955-1.957 1.955H2.798c-1.175 0-1.956-.78-1.956-1.955v-8.408c0-4.108 2.15-7.82 5.865-9.58 11.668-6.19 20.62-9.662 28.59-10.99l-.826-1.135c-.392-.391-.392-1.173-.392-1.563l1.833-7.33c-4.843-6.852-7.699-15.416-7.699-23.564v-7.82H22.35c-1.177 0-1.956-.782-1.956-1.956 0-1.171.78-1.953 1.956-1.953h1.953v-1.957c0-15.446 10.168-28.547 25.419-32.849v-.39c0-3.323 2.737-5.868 5.865-5.868h7.823c3.323 0 5.867 2.738 5.867 5.868v.39c15.248 4.302 25.416 17.403 25.416 32.849v1.957h1.956c1.174 0 1.954.782 1.954 1.953 0 1.174-.78 1.956-1.954 1.956h-5.866v7.822c0 8.146-2.853 16.71-7.7 23.561l1.835 7.331c.196.586 0 1.172-.393 1.563l-.825 1.135c7.97 1.328 16.922 4.8 28.591 10.99 3.52 1.955 5.867 5.668 5.867 9.58zm-63.354-3.323h9.541l-1.913-4.302-2.922-6.429-1.186 2.663zm-2.657 9.775h14.635l-1.121-5.866H53.32zm26.987-32.313c-.011.013-.02.027-.036.04-.051.048-.1.1-.151.15-4.543 4.544-10.165 7.708-16.467 8.473l5.271 11.864 2.58-3.545 8.135-11.26c.1-.157.22-.283.346-.385l2-2.744-.783-3.519c-.296.316-.594.625-.895.926zM75.73 23.22l8.994-1.76c-1.804-2.342-4.105-4.518-6.598-6.377a51.72 51.72 0 0 0-.643-.441zm-34.214-8.578c-.215.146-.43.292-.642.44-2.495 1.86-4.796 4.036-6.598 6.378l8.995 1.76zM28.213 39.448v1.957h62.57v-1.957c0-5.267-1.342-10.235-3.768-14.56l-13.438 2.83h-.389c-.588 0-.981-.197-1.37-.588-.392-.392-.588-1.172-.588-1.76l2.632-12.801a32.472 32.472 0 0 0-4.585-1.812v5.226c0 1.176-.783 1.957-1.958 1.957-1.173 0-1.954-.781-1.954-1.957V6.209c0-1.173-.98-1.956-1.955-1.956h-7.823c-1.173 0-1.955.98-1.955 1.956v9.775c0 1.175-.781 1.956-1.955 1.956s-1.955-.781-1.955-1.956v-5.227a32.683 32.683 0 0 0-4.444 1.744l2.685 13.064c.193.586 0 1.369-.588 1.76-.586.196-.979.393-1.563.393h-.393l-13.522-2.67c-2.37 4.29-3.684 9.196-3.684 14.4zm3.912 5.866v7.822c0 8.526 2.923 16.102 7.316 21.86l.113.04c.196.193.39.389.586.586 2.67 3.334 5.664 5.972 8.847 7.8 3.143 1.754 6.458 2.783 9.697 2.931.242-.115.514-.175.814-.175.301 0 .597.059.866.172 5.29-.257 10.781-2.855 15.383-7.143a32.854 32.854 0 0 0 3.11-3.585c.196-.197.389-.393.586-.587l.113-.039c4.392-5.758 7.316-13.334 7.316-21.86v-7.822zm7.65 36.032c-.273-.275-.541-.553-.807-.837l-.781 3.52 2.143 2.942c.073.06.141.124.201.186l8.135 11.26 2.582 3.545 5.268-11.864c-6.427-.782-12.152-4.057-16.742-8.752zM4.75 113.748h43.33l1.482-7.408-11.67-16.042c-7.99.99-16.962 4.314-29.426 10.937-2.348 1.174-3.716 3.52-3.716 6.06zm109.495-6.452c0-2.54-1.369-4.887-3.716-6.256-12.202-6.392-21.336-9.715-29.3-10.914L69.438 106.34l1.48 7.408h43.328z"/></g></g></svg>